<svg width="32" height="32" viewBox="0 0 32 32" fill="none" xmlns="http://www.w3.org/2000/svg">
<path d="M25.08 8.33334H26.8934C26.64 7.97334 26.3734 7.64 26.0934 7.30667L25.08 8.33334Z" fill="#12B12C"/>
<path d="M24.6934 5.89335C24.36 5.61335 24.0267 5.34669 23.6667 5.09335V6.90669L24.6934 5.89335Z" fill="#12B12C"/>
<path d="M26.1067 7.30668L30.04 3.37335C30.4267 2.98668 30.4267 2.34668 30.04 1.96001C29.6534 1.57335 29.0134 1.57335 28.6267 1.96001L24.6934 5.89335C25.2 6.33335 25.6667 6.81335 26.1067 7.30668Z" fill="#12B12C"/>
<path d="M23.6667 4C23.6667 3.45333 23.2133 3 22.6667 3C22.1333 3 21.7067 3.42667 21.68 3.94667C22.3733 4.28 23.04 4.65333 23.6667 5.09333V4Z" fill="#12B12C"/>
<path d="M29 9.33334C29 8.78668 28.5466 8.33334 28 8.33334H26.8933C27.3333 8.96001 27.72 9.62668 28.04 10.32C28.5733 10.2933 29 9.86668 29 9.33334Z" fill="#12B12C"/>
<path d="M17 19.6667H17.4C17.92 19.6667 18.3333 19.2 18.3333 18.6267C18.3333 17.9067 18.1333 17.8 17.68 17.64L17 17.4V19.6667Z" fill="#12B12C"/>
<path d="M28.0534 10.32C28.04 10.32 28.0267 10.3333 28 10.3333H22.6667C22.5334 10.3333 22.4134 10.3067 22.28 10.2533C22.04 10.1467 21.84 9.95999 21.7334 9.70666C21.6934 9.58666 21.6667 9.46666 21.6667 9.33332V3.99999C21.6667 3.98666 21.68 3.97332 21.68 3.94666C19.9467 3.13332 18.0267 2.66666 16 2.66666C8.64002 2.66666 2.66669 8.63999 2.66669 16C2.66669 23.36 8.64002 29.3333 16 29.3333C23.36 29.3333 29.3334 23.36 29.3334 16C29.3334 13.9733 28.8667 12.0533 28.0534 10.32ZM18.3334 15.76C19.1867 16.0533 20.3334 16.68 20.3334 18.64C20.3334 20.3067 19.0134 21.68 17.4 21.68H17V22.0133C17 22.56 16.5467 23.0133 16 23.0133C15.4534 23.0133 15 22.56 15 22.0133V21.68H14.8934C13.12 21.68 11.6667 20.1867 11.6667 18.3467C11.6667 17.7867 12.12 17.3333 12.6667 17.3333C13.2134 17.3333 13.6667 17.7867 13.6667 18.3333C13.6667 19.0667 14.2134 19.6667 14.8934 19.6667H15V16.7067L13.6667 16.24C12.8134 15.9467 11.6667 15.32 11.6667 13.36C11.6667 11.6933 12.9867 10.32 14.6 10.32H15V9.99999C15 9.45332 15.4534 8.99999 16 8.99999C16.5467 8.99999 17 9.45332 17 9.99999V10.3333H17.1067C18.88 10.3333 20.3334 11.8267 20.3334 13.6667C20.3334 14.2133 19.88 14.6667 19.3334 14.6667C18.7867 14.6667 18.3334 14.2133 18.3334 13.6667C18.3334 12.9333 17.7867 12.3333 17.1067 12.3333H17V15.2933L18.3334 15.76Z" fill="#12B12C"/>
<path d="M13.6667 13.3733C13.6667 14.0933 13.8667 14.2 14.32 14.36L15 14.6V12.3333H14.6C14.0934 12.3333 13.6667 12.8 13.6667 13.3733Z" fill="#12B12C"/>
</svg>
