<svg width="32" height="32" viewBox="0 0 32 32" fill="none" xmlns="http://www.w3.org/2000/svg">
<path d="M13.6667 13.3733C13.6667 14.0933 13.8667 14.2 14.32 14.36L15 14.6V12.3333H14.6C14.0934 12.3333 13.6667 12.8 13.6667 13.3733Z" fill="#F76B1D"/>
<path d="M17 19.6667H17.4C17.92 19.6667 18.3333 19.2 18.3333 18.6267C18.3333 17.9067 18.1333 17.8 17.68 17.64L17 17.4V19.6667Z" fill="#F76B1D"/>
<path d="M26.1067 7.30666L23.3734 10.04C23.1734 10.24 22.92 10.3333 22.6667 10.3333C22.4134 10.3333 22.16 10.24 21.96 10.04C21.5734 9.65332 21.5734 9.01332 21.96 8.62666L24.6934 5.89332C22.3467 3.89332 19.32 2.66666 16 2.66666C8.64002 2.66666 2.66669 8.63999 2.66669 16C2.66669 23.36 8.64002 29.3333 16 29.3333C23.36 29.3333 29.3334 23.36 29.3334 16C29.3334 12.68 28.1067 9.65332 26.1067 7.30666ZM18.3334 15.76C19.1867 16.0667 20.3334 16.68 20.3334 18.64C20.3334 20.3067 19.0134 21.68 17.4 21.68H17V22.0133C17 22.56 16.5467 23.0133 16 23.0133C15.4534 23.0133 15 22.56 15 22.0133V21.68H14.8934C13.12 21.68 11.6667 20.1867 11.6667 18.3467C11.6667 17.7867 12.12 17.3333 12.6667 17.3333C13.2134 17.3333 13.6667 17.7867 13.6667 18.3333C13.6667 19.0667 14.2134 19.6667 14.8934 19.6667H15V16.7067L13.6667 16.24C12.8134 15.9333 11.6667 15.32 11.6667 13.36C11.6667 11.6933 12.9867 10.32 14.6 10.32H15V9.99999C15 9.45332 15.4534 8.99999 16 8.99999C16.5467 8.99999 17 9.45332 17 9.99999V10.3333H17.1067C18.88 10.3333 20.3334 11.8267 20.3334 13.6667C20.3334 14.2133 19.88 14.6667 19.3334 14.6667C18.7867 14.6667 18.3334 14.2133 18.3334 13.6667C18.3334 12.9333 17.7867 12.3333 17.1067 12.3333H17V15.2933L18.3334 15.76Z" fill="#F76B1D"/>
<path d="M30.2533 2.27999C30.1467 2.03999 29.96 1.83999 29.7067 1.73332C29.5867 1.69332 29.4667 1.66666 29.3333 1.66666H24C23.4533 1.66666 23 2.11999 23 2.66666C23 3.21332 23.4533 3.66666 24 3.66666H26.92L24.6933 5.89332C25.2 6.33332 25.6667 6.79999 26.1067 7.30666L28.3333 5.07999V7.99999C28.3333 8.54666 28.7867 8.99999 29.3333 8.99999C29.88 8.99999 30.3333 8.54666 30.3333 7.99999V2.66666C30.3333 2.53332 30.3067 2.41332 30.2533 2.27999Z" fill="#F76B1D"/>
</svg>
